<?xml version="1.0" standalone="no"?>
<!DOCTYPE svg PUBLIC "-//W3C//DTD SVG 20010904//EN"
 "http://www.w3.org/TR/2001/REC-SVG-20010904/DTD/svg10.dtd">
<svg version="1.0" xmlns="http://www.w3.org/2000/svg"
 width="368.000000pt" height="249.000000pt" viewBox="0 0 368.000000 249.000000"
 preserveAspectRatio="xMidYMid meet">

<g transform="translate(0.000000,249.000000) scale(0.100000,-0.100000)"
fill="#000000" stroke="none">
<path d="M1410 2120 c-474 -308 -459 -294 -366 -356 31 -20 56 -40 56 -43 0
-3 -25 -22 -55 -40 -74 -47 -74 -68 0 -117 30 -20 55 -40 55 -43 0 -3 -25 -22
-56 -41 -93 -58 -99 -52 286 -302 415 -271 506 -328 522 -328 7 0 202 123 433
273 479 310 466 297 371 357 -31 19 -56 38 -56 41 0 3 25 23 55 44 70 48 69
66 -2 115 -29 19 -52 38 -53 42 0 4 25 23 55 43 65 41 70 63 23 99 -98 73
-812 526 -831 526 -12 0 -206 -120 -437 -270z m827 -51 c276 -179 371 -245
363 -254 -5 -6 -25 -20 -44 -30 l-34 -18 -323 210 c-178 115 -330 213 -337
217 -15 9 -15 9 -386 -232 l-299 -195 -34 18 c-18 10 -38 24 -43 31 -8 9 83
73 362 253 205 133 379 241 387 241 8 0 182 -109 388 -241z m5 -204 c267 -173
365 -241 358 -250 -5 -6 -25 -20 -44 -30 l-34 -18 -325 211 c-179 117 -335
212 -347 212 -13 0 -131 -70 -263 -156 -133 -86 -246 -158 -253 -161 -16 -6
-86 37 -81 51 7 22 581 387 602 383 11 -2 185 -111 387 -242z m-170 -90 c123
-80 224 -149 225 -153 4 -12 -424 -282 -447 -282 -13 0 -105 53 -204 118 -100
65 -196 127 -214 137 -18 11 -31 23 -29 28 2 7 432 293 444 296 1 1 102 -64
225 -144z m-547 -324 c165 -107 307 -196 316 -198 17 -5 61 22 368 221 l163
106 30 -18 c31 -18 53 -40 47 -46 -20 -20 -588 -380 -599 -380 -16 -1 -760
475 -760 486 0 4 19 18 42 32 41 24 44 25 68 9 14 -10 160 -105 325 -212z
m-16 -189 c173 -113 323 -207 333 -209 18 -5 104 48 500 307 l183 119 37 -22
c21 -12 39 -26 40 -32 1 -9 -737 -494 -754 -495 -8 0 -728 467 -746 484 -11
11 -6 18 30 39 24 14 47 22 53 19 5 -3 151 -98 324 -210z"/>
<path d="M90 461 l0 -241 111 0 c82 0 120 4 145 16 50 24 74 63 74 121 0 41
-5 54 -27 75 -16 15 -41 30 -56 34 l-28 6 28 18 c43 26 56 47 56 88 0 88 -44
114 -195 120 l-108 4 0 -241z m232 159 c14 -17 18 -33 14 -55 -11 -51 -36 -67
-115 -73 l-71 -5 0 83 0 82 76 -4 c66 -3 79 -7 96 -28z m3 -194 c51 -34 53
-102 3 -139 -19 -14 -48 -21 -102 -25 l-76 -5 0 98 0 98 74 -5 c47 -3 85 -11
101 -22z"/>
<path d="M2220 460 l0 -240 30 0 30 0 0 101 0 100 47 -3 47 -3 56 -97 c52 -93
57 -98 88 -98 38 0 40 -9 -35 122 -43 75 -47 98 -18 98 7 0 27 16 45 37 30 34
32 40 28 96 -4 50 -9 64 -31 83 -38 33 -88 44 -194 44 l-93 0 0 -240z m239
166 c21 -19 29 -75 15 -111 -11 -28 -60 -45 -129 -45 l-65 0 0 91 0 91 79 -3
c60 -3 84 -9 100 -23z"/>
<path d="M1050 573 c-8 -3 -27 -14 -42 -24 -33 -24 -38 -24 -38 1 0 15 -7 20
-25 20 l-25 0 0 -175 0 -175 30 0 29 0 3 132 3 132 34 23 c42 29 82 29 107 2
16 -18 20 -40 22 -155 l4 -134 29 0 29 0 0 118 c-1 141 -10 190 -45 220 -25
21 -79 28 -115 15z"/>
<path d="M1373 561 c-64 -41 -79 -121 -34 -182 20 -27 20 -27 0 -44 -22 -21
-25 -63 -5 -90 12 -17 11 -23 -10 -48 -67 -79 12 -156 147 -144 33 3 74 14 91
24 43 24 73 80 64 116 -10 43 -47 60 -148 66 -72 5 -93 10 -102 24 -20 32 4
52 60 49 62 -4 109 24 131 76 14 33 14 41 1 80 l-16 42 34 0 c27 0 34 4 34 20
0 17 -7 20 -42 20 -24 0 -72 3 -108 6 -54 4 -70 2 -97 -15z m121 -42 c20 -16
26 -29 26 -62 0 -52 -30 -87 -76 -87 -67 0 -100 95 -49 145 30 30 64 32 99 4z
m54 -325 c53 -37 4 -95 -86 -102 -47 -3 -62 0 -84 18 -32 24 -36 55 -11 82 22
24 147 26 181 2z"/>
<path d="M1733 560 c-44 -20 -49 -26 -35 -48 7 -10 16 -9 45 3 44 18 97 19
120 3 9 -7 19 -27 23 -44 l6 -31 -63 -12 c-108 -22 -159 -63 -159 -128 0 -80
93 -118 180 -73 47 24 50 24 50 5 0 -9 10 -15 26 -15 l26 0 -4 143 c-3 154
-12 182 -64 205 -37 18 -103 14 -151 -8z m157 -209 c0 -41 -4 -53 -25 -70 -60
-46 -135 -31 -135 27 0 47 62 88 138 91 20 1 22 -4 22 -48z"/>
<path d="M2696 565 c-53 -19 -64 -31 -44 -51 14 -14 18 -14 46 0 47 24 107 21
126 -6 9 -12 16 -32 16 -44 0 -17 -8 -23 -37 -28 -127 -23 -178 -61 -178 -133
0 -37 5 -49 28 -69 35 -30 97 -32 150 -4 44 24 47 24 47 5 0 -9 9 -15 25 -15
l25 0 0 138 c0 119 -3 141 -20 170 -32 52 -102 66 -184 37z m144 -219 c0 -54
0 -54 -44 -76 -66 -32 -116 -11 -116 48 0 35 77 80 138 82 20 0 22 -5 22 -54z"/>
<path d="M3405 564 c-53 -20 -63 -30 -43 -50 14 -14 18 -14 46 0 47 24 107 21
126 -6 9 -12 16 -32 16 -44 0 -17 -8 -23 -37 -28 -127 -23 -178 -61 -178 -133
0 -37 5 -49 29 -70 25 -22 37 -25 81 -21 32 3 64 13 83 27 32 22 32 22 32 2 0
-16 6 -21 25 -21 l25 0 0 138 c0 119 -3 141 -20 170 -32 53 -102 66 -185 36z
m145 -218 c0 -54 0 -54 -44 -76 -64 -30 -116 -11 -116 43 0 38 76 85 138 87
20 0 22 -5 22 -54z"/>
<path d="M510 446 c0 -148 5 -178 36 -211 19 -20 32 -25 73 -25 42 0 56 5 85
31 l35 30 7 -25 c4 -19 13 -26 30 -26 l24 0 0 175 0 175 -30 0 -30 0 0 -129 0
-130 -33 -25 c-22 -17 -47 -26 -70 -26 -56 0 -67 30 -67 185 l0 125 -30 0 -30
0 0 -124z"/>
<path d="M2973 558 c2 -7 35 -89 72 -181 l68 -168 -19 -40 c-19 -44 -39 -59
-77 -59 -16 0 -26 -7 -30 -19 -6 -26 0 -31 35 -31 41 0 83 24 106 62 15 25
162 427 162 444 0 2 -13 4 -28 4 -28 0 -30 -3 -72 -137 -23 -76 -45 -142 -48
-147 -3 -5 -28 56 -57 135 -52 143 -52 144 -85 147 -24 3 -31 0 -27 -10z"/>
</g>
</svg>
